Republic of Telly S03E02 [RTE Ireland] HDTV 720p x264 AC3 DeViL303

Broadcast: 11th March 2013 10.30pm RTE TWO HD [Ireland]

Bernard has an affair with Jen's mum and the team presents Grand Theft Auto Ireland. Guest starring Amanda Byram.


File Info:
Complete name                            : Republic of Telly S03E02 [RTE Ireland] HDTV 720p x264 AC3 DeViL303.mkv
Format                                   : Matroska
Format version                           : Version 1
File size                                : 462 MiB
Duration                                 : 25mn 51s
Overall bit rate mode                    : Variable
Overall bit rate                         : 2 497 Kbps
Encoded date                             : UTC 2013-03-11 23:49:46
Writing application                      : mkvmerge v2.5.3 ('Boogie') built on Mar  7 2009 15:00:41
Writing library                          : libebml v0.7.7 + libmatroska v0.8.1

Video
ID                                       : 1
Format                                   : AVC
Format/Info                              : Advanced Video Codec
Format profile                           : High@L4.0
Format settings, CABAC                   : Yes
Format settings, ReFrames                : 3 frames
Codec ID                                 : V_MPEG4/ISO/AVC
Duration                                 : 25mn 51s
Bit rate mode                            : Variable
Bit rate                                 : 2 303 Kbps
Maximum bit rate                         : 20.0 Mbps
Width                                    : 1 280 pixels
Height                                   : 720 pixels
Display aspect ratio                     : 16:9
Frame rate mode                          : Constant
Frame rate                               : 25.000 fps
Color space                              : YUV
Chroma subsampling                       : 4:2:0
Bit depth                                : 8 bits
Scan type                                : Progressive
Bits/(Pixel*Frame)                       : 0.100
Stream size                              : 417 MiB (90%)
Writing library                          : x264 core 93 r1542M 5b86182
Encoding settings                        : 
Default                                  : Yes
Forced                                   : No

Audio
ID                                       : 2
Format                                   : AC-3
Format/Info                              : Audio Coding 3
Mode extension                           : CM (complete main)
Format settings, Endianness              : Big
Codec ID                                 : A_AC3
Duration                                 : 25mn 51s
Bit rate mode                            : Constant
Bit rate                                 : 192 Kbps
Channel(s)                               : 2 channels
Channel positions                        : Front: L R
Sampling rate                            : 48.0 KHz
Bit depth                                : 16 bits
Compression mode                         : Lossy
Stream size                              : 35.5 MiB (8%)
Default                                  : Yes
Forced                                   : No

Text
ID                                       : 3
Format                                   : SSA
Codec ID                                 : S_TEXT/SSA
Codec ID/Info                            : Sub Station Alpha
Compression mode                         : Lossless
Default                                  : Yes
Forced                                   : No

Menu
00:00:00.000                             : en:Chapter 1n[00:00:00]
00:02:19.119                             : en:Chapter 2n[00:02:19]
00:04:38.239                             : en:Chapter 3n[00:04:38]
00:06:57.359                             : en:Chapter 4n[00:06:57]
00:09:16.479                             : en:Chapter 5n[00:09:16]
00:11:35.599                             : en:Chapter 6n[00:11:35]
00:13:54.719                             : en:Chapter 7n[00:13:54]
00:16:13.839                             : en:Chapter 8n[00:16:13]
00:18:32.959                             : en:Chapter 9n[00:18:32]
00:20:52.079                             : en:Chapter 10n[00:20:52]
00:23:11.199                             : en:Chapter 11n[00:23:11]
00:25:28.319                             : en:Chapter 12n[00:25:28]






